<svg width="34" height="39" viewBox="0 0 34 39" fill="none" xmlns="http://www.w3.org/2000/svg">
<path d="M2.12538 3.85903V0.60215H13.1765V16.2463C10.8939 17.7495 8.3051 18.4175 5.4101 18.4175C3.82341 18.4175 2.43158 18.2227 1.06759 17.833V14.4926C2.51509 14.8823 3.57288 15.0215 5.02038 15.0215C6.80192 15.0215 8.11024 14.771 9.36289 14.1307V3.85903H2.12538ZM28.0347 18V12.544H20.1848V18H16.399V2.35585C18.96 0.824842 21.4931 0.184601 24.1097 0.184601C26.7264 0.184601 29.2317 0.824842 31.7926 2.35585V18H28.0347ZM20.1848 4.61061V9.23148H28.0347V4.61061C26.7542 3.94254 25.5016 3.63633 24.1097 3.63633C22.6901 3.63633 21.4374 3.94254 20.1848 4.61061ZM12.5689 38L4.4406 26.1695V38H0.933195V20.6022H4.66329L12.7916 32.4327V20.6022H16.299V38H12.5689ZM33.3858 36.2463C30.7692 37.7773 28.1804 38.4175 25.5359 38.4175C23.1698 38.4175 21.1656 38.0278 19.384 37.3319V33.908C21.1934 34.6039 23.3925 35.0215 25.2854 35.0215C26.8999 35.0215 28.4309 34.7431 29.7393 34.0472V31.6254L19.384 29.3985V22.3559C21.9728 20.8248 24.5617 20.1846 27.234 20.1846C29.5722 20.1846 31.6043 20.5743 33.3858 21.2702V24.6941C31.6043 24.026 29.4887 23.5807 27.6237 23.5807C25.9535 23.5807 24.506 23.859 23.0306 24.5549V26.8654L33.3858 29.0923V36.2463Z" fill="white"/>
</svg>
