<svg width="212" height="44" viewBox="0 0 212 44" fill="none" xmlns="http://www.w3.org/2000/svg">
<g style="mix-blend-mode:difference">
<circle cx="105.551" cy="21.6667" r="20" stroke="white" stroke-width="3.33333"/>
<mask id="mask0_70_52" style="mask-type:alpha" maskUnits="userSpaceOnUse" x="94" y="10" width="24" height="24">
<rect x="94" y="10" width="24" height="24" fill="#D9D9D9"/>
</mask>
<g mask="url(#mask0_70_52)">
<path d="M99.65 20.025L101.6 20.85C101.833 20.3833 102.075 19.9333 102.325 19.5C102.575 19.0666 102.85 18.6333 103.15 18.2L101.75 17.925L99.65 20.025ZM103.2 22.1L106.05 24.925C106.75 24.6583 107.5 24.25 108.3 23.7C109.1 23.15 109.85 22.525 110.55 21.825C111.717 20.6583 112.629 19.3625 113.287 17.9375C113.946 16.5125 114.233 15.2 114.15 14C112.95 13.9167 111.633 14.2042 110.2 14.8625C108.767 15.5208 107.467 16.4333 106.3 17.6C105.6 18.3 104.975 19.05 104.425 19.85C103.875 20.65 103.467 21.4 103.2 22.1ZM107.65 20.475C107.267 20.0917 107.075 19.6208 107.075 19.0625C107.075 18.5041 107.267 18.0333 107.65 17.65C108.033 17.2667 108.508 17.075 109.075 17.075C109.642 17.075 110.117 17.2667 110.5 17.65C110.883 18.0333 111.075 18.5041 111.075 19.0625C111.075 19.6208 110.883 20.0917 110.5 20.475C110.117 20.8583 109.642 21.05 109.075 21.05C108.508 21.05 108.033 20.8583 107.65 20.475ZM108.125 28.5L110.225 26.4L109.95 25C109.517 25.3 109.083 25.5708 108.65 25.8125C108.217 26.0542 107.767 26.2916 107.3 26.525L108.125 28.5ZM115.95 12.175C116.267 14.1917 116.071 16.1542 115.362 18.0625C114.654 19.9708 113.433 21.7916 111.7 23.525L112.2 26C112.267 26.3333 112.25 26.6583 112.15 26.975C112.05 27.2916 111.883 27.5666 111.65 27.8L107.45 32L105.35 27.075L101.075 22.8L96.15 20.7L100.325 16.5C100.558 16.2667 100.837 16.1 101.162 16C101.487 15.9 101.817 15.8833 102.15 15.95L104.625 16.45C106.358 14.7167 108.175 13.4917 110.075 12.775C111.975 12.0583 113.933 11.8583 115.95 12.175ZM97.925 25.975C98.5083 25.3917 99.2208 25.0958 100.062 25.0875C100.904 25.0792 101.617 25.3667 102.2 25.95C102.783 26.5333 103.071 27.2458 103.062 28.0875C103.054 28.9292 102.758 29.6416 102.175 30.225C101.758 30.6416 101.062 31 100.087 31.3C99.1125 31.6 97.7667 31.8666 96.05 32.1C96.2833 30.3833 96.55 29.0375 96.85 28.0625C97.15 27.0875 97.5083 26.3917 97.925 25.975ZM99.35 27.375C99.1833 27.5417 99.0167 27.8458 98.85 28.2875C98.6833 28.7292 98.5667 29.175 98.5 29.625C98.95 29.5583 99.3958 29.4458 99.8375 29.2875C100.279 29.1292 100.583 28.9667 100.75 28.8C100.95 28.6 101.058 28.3583 101.075 28.075C101.092 27.7916 101 27.55 100.8 27.35C100.6 27.15 100.358 27.0542 100.075 27.0625C99.7917 27.0708 99.55 27.175 99.35 27.375Z" fill="white"/>
</g>
<circle cx="50.2179" cy="21.6667" r="20" stroke="white" stroke-width="3.33333"/>
<mask id="mask1_70_52" style="mask-type:alpha" maskUnits="userSpaceOnUse" x="38" y="10" width="24" height="24">
<rect x="38" y="10" width="24" height="24" fill="#D9D9D9"/>
</mask>
<g mask="url(#mask1_70_52)">
<path d="M45.725 24.275C46.2083 24.7583 46.8 25 47.5 25C48.2 25 48.7917 24.7583 49.275 24.275L53.275 20.275C53.7583 19.7917 54 19.2 54 18.5C54 17.8 53.7583 17.2083 53.275 16.725C52.7917 16.2417 52.2 16 51.5 16C50.8 16 50.2083 16.2417 49.725 16.725C49.1083 16.5083 48.5 16.4583 47.9 16.575C47.3 16.6917 46.7917 16.9583 46.375 17.375C45.9583 17.7917 45.6917 18.3 45.575 18.9C45.4583 19.5 45.5083 20.1083 45.725 20.725C45.2417 21.2083 45 21.8 45 22.5C45 23.2 45.2417 23.7917 45.725 24.275ZM44 32V27.7C43.05 26.8333 42.3125 25.8208 41.7875 24.6625C41.2625 23.5042 41 22.2833 41 21C41 18.5 41.875 16.375 43.625 14.625C45.375 12.875 47.5 12 50 12C52.0833 12 53.9292 12.6125 55.5375 13.8375C57.1458 15.0625 58.1917 16.6583 58.675 18.625L59.975 23.75C60.0583 24.0667 60 24.3542 59.8 24.6125C59.6 24.8708 59.3333 25 59 25H57V28C57 28.55 56.8042 29.0208 56.4125 29.4125C56.0208 29.8042 55.55 30 55 30H53V32H51V28H55V23H57.7L56.75 19.125C56.3667 17.6083 55.55 16.375 54.3 15.425C53.05 14.475 51.6167 14 50 14C48.0667 14 46.4167 14.675 45.05 16.025C43.6833 17.375 43 19.0167 43 20.95C43 21.95 43.2042 22.9 43.6125 23.8C44.0208 24.7 44.6 25.5 45.35 26.2L46 26.8V32H44Z" fill="white"/>
</g>
<circle cx="160.885" cy="21.6667" r="20" stroke="white" stroke-width="3.33333"/>
<mask id="mask2_70_52" style="mask-type:alpha" maskUnits="userSpaceOnUse" x="149" y="10" width="24" height="24">
<rect x="149" y="10" width="24" height="24" fill="#D9D9D9"/>
</mask>
<g mask="url(#mask2_70_52)">
<path d="M160.5 27C161.75 27 162.812 26.5625 163.688 25.6875C164.562 24.8125 165 23.75 165 22.5V18H160.5C159.25 18 158.188 18.4375 157.312 19.3125C156.438 20.1875 156 21.25 156 22.5C156 22.9333 156.058 23.35 156.175 23.75C156.292 24.15 156.467 24.5333 156.7 24.9L156.3 25.3C156.117 25.4833 156.025 25.7167 156.025 26C156.025 26.2833 156.117 26.5167 156.3 26.7C156.483 26.8833 156.717 26.975 157 26.975C157.283 26.975 157.517 26.8833 157.7 26.7L158.1 26.3C158.467 26.5333 158.85 26.7083 159.25 26.825C159.65 26.9417 160.067 27 160.5 27ZM160.5 25C160.35 25 160.2 24.9833 160.05 24.95C159.9 24.9167 159.75 24.875 159.6 24.825L161.7 22.7C161.883 22.5167 161.975 22.2833 161.975 22C161.975 21.7167 161.883 21.4833 161.7 21.3C161.517 21.1167 161.283 21.025 161 21.025C160.717 21.025 160.483 21.1167 160.3 21.3L158.175 23.4C158.125 23.25 158.083 23.1 158.05 22.95C158.017 22.8 158 22.65 158 22.5C158 21.8 158.242 21.2083 158.725 20.725C159.208 20.2417 159.8 20 160.5 20H163V22.5C163 23.2 162.758 23.7917 162.275 24.275C161.792 24.7583 161.2 25 160.5 25ZM161 33L157.55 30.3L153.225 29.775L152.7 25.45L150 22L152.7 18.55L153.225 14.225L157.55 13.7L161 11L164.45 13.7L168.775 14.225L169.3 18.55L172 22L169.3 25.45L168.775 29.775L164.45 30.3L161 33ZM161 30.45L163.65 28.4L167 27.975L167.4 24.65L169.45 22L167.4 19.35L166.975 16.025L163.65 15.6L161 13.55L158.35 15.6L155 16.025L154.6 19.35L152.55 22L154.6 24.65L155.025 28L158.35 28.4L161 30.45Z" fill="white"/>
</g>
</g>
<g style="mix-blend-mode:difference">
<circle cx="8.27565" cy="22.2756" r="6.60898" stroke="white" stroke-width="3.33333"/>
</g>
<g style="mix-blend-mode:difference">
<circle cx="202.827" cy="24.2756" r="6.60898" stroke="white" stroke-width="3.33333"/>
</g>
</svg>
